<svg width="178" height="250" viewBox="0 0 178 250" fill="none" xmlns="http://www.w3.org/2000/svg">
<path d="M125.68 206.208V85.536H60.592V66.24H149.296V206.208H125.68ZM134.896 36.864C129.52 36.864 125.008 35.232 121.36 31.968C117.712 28.512 115.888 24 115.888 18.432C115.888 12.864 117.712 8.44799 121.36 5.184C125.008 1.728 129.52 0 134.896 0C140.272 0 144.784 1.728 148.432 5.184C152.08 8.44799 153.904 12.864 153.904 18.432C153.904 24 152.08 28.512 148.432 31.968C144.784 35.232 140.272 36.864 134.896 36.864Z" fill="black"/>
<path d="M56.16 232.664C45.6 232.664 35.232 230.168 25.056 225.176C14.88 220.184 6.528 212.216 0 201.272L14.976 186.584C20.352 195.224 26.592 201.56 33.696 205.592C40.992 209.624 48.288 211.64 55.584 211.64C69.216 211.64 79.104 208.088 85.248 200.984C91.584 193.688 94.752 182.264 94.752 166.712V60.152H15.552V39.992H118.656V168.728C118.656 177.56 117.6 185.912 115.488 193.784C113.376 201.464 109.824 208.184 104.832 213.944C100.032 219.704 93.6 224.312 85.536 227.768C77.664 231.032 67.872 232.664 56.16 232.664Z" fill="black"/>
<path d="M70.682 249.208V98.328H107.942C130.789 98.328 148.115 104.768 159.922 117.648C171.882 130.528 177.862 149.005 177.862 173.078C177.862 197.151 171.882 215.858 159.922 229.198C148.115 242.538 131.095 249.208 108.862 249.208H70.682ZM89.772 233.568H106.562C123.889 233.568 136.769 228.278 145.202 217.698C153.789 207.118 158.082 192.245 158.082 173.078C158.082 153.911 153.789 139.268 145.202 129.148C136.769 119.028 123.889 113.968 106.562 113.968H89.772V233.568Z" fill="black"/>
</svg>
